Coordinates
version=1
nRows=43
nColumns=12
inDegrees=yes

Units are S.I. units (second, meters, Newtons, ...)
Angles are in degrees

endheader
time	SC_y	SC_z	SC_x	AC_y	AC_z	AC_x	GH_y	GH_z	GH_yy	EL_x	PS_y
       0.0              -51.48          4.654          12.19          53.71         -13.63         -9.838          -60.1         -7.837          102.7           14.6          65.99
   0.02468              -51.48          4.658          12.19          53.71         -13.63         -9.835         -60.11         -7.836          102.7           14.6           66.0
   0.04936              -51.48          4.663          12.19           53.7         -13.63         -9.831         -60.11         -7.835          102.6          14.61          66.01
   0.07403              -51.47          4.668           12.2           53.7         -13.62         -9.828         -60.12         -7.833          102.6          14.62          66.03
   0.09871              -51.47          4.673           12.2           53.7         -13.62         -9.824         -60.12         -7.832          102.6          14.63          66.04
    0.1234              -51.47          4.678           12.2          53.69         -13.62          -9.82         -60.13          -7.83          102.5          14.64          66.06
    0.1481              -51.47          4.684           12.2          53.69         -13.62         -9.816         -60.14         -7.828          102.5          14.65          66.08
    0.1727              -51.46           4.69           12.2          53.68         -13.62         -9.812         -60.14         -7.826          102.4          14.66           66.1
    0.1974              -51.46          4.697           12.2          53.68         -13.62         -9.807         -60.15         -7.824          102.4          14.67          66.12
    0.2221              -51.46          4.704          12.21          53.67         -13.61         -9.802         -60.16         -7.822          102.3          14.68          66.14
    0.2468              -51.45          4.711          12.21          53.67         -13.61         -9.796         -60.17         -7.819          102.3          14.69          66.16
    0.2715              -51.45           4.72          12.21          53.66         -13.61          -9.79         -60.17         -7.817          102.2          14.71          66.19
    0.2961              -51.44          4.728          12.21          53.66         -13.61         -9.784         -60.18         -7.814          102.1          14.72          66.21
    0.3208              -51.44          4.738          12.22          53.65          -13.6         -9.777         -60.19         -7.811          102.1          14.74          66.24
    0.3455              -51.43          4.748          12.22          53.64          -13.6         -9.769         -60.21         -7.808          102.0          14.76          66.27
    0.3702              -51.43           4.76          12.22          53.63          -13.6         -9.761         -60.22         -7.804          101.9          14.77          66.31
    0.3948              -51.42          4.772          12.23          53.62         -13.59         -9.752         -60.23         -7.801          101.8          14.79          66.34
    0.4195              -51.42          4.785          12.23          53.61         -13.59         -9.742         -60.25         -7.796          101.7          14.82          66.38
    0.4442              -51.41          4.799          12.23           53.6         -13.59         -9.732         -60.26         -7.792          101.6          14.84          66.43
    0.4689               -51.4          4.815          12.24          53.59         -13.58          -9.72         -60.28         -7.787          101.5          14.87          66.47
    0.4936              -51.39          4.833          12.24          53.58         -13.58         -9.707          -60.3         -7.781          101.3           14.9          66.53
    0.5182              -51.38          4.852          12.25          53.56         -13.57         -9.693         -60.32         -7.775          101.2          14.93          66.59
    0.5429              -51.37          4.873          12.25          53.55         -13.56         -9.678         -60.34         -7.769          101.0          14.97          66.65
    0.5676              -51.36          4.897          12.26          53.53         -13.56         -9.661         -60.37         -7.762          100.8           15.0          66.72
    0.5923              -51.35          4.923          12.27          53.51         -13.55         -9.642         -60.39         -7.753          100.6          15.05           66.8
    0.6169              -51.34          4.952          12.28          53.49         -13.54         -9.621         -60.42         -7.744          100.4           15.1          66.89
    0.6416              -51.32          4.985          12.29          53.47         -13.53         -9.597         -60.46         -7.734          100.1          15.15          66.99
    0.6663               -51.3          5.021           12.3          53.44         -13.52          -9.57          -60.5         -7.723          99.84          15.21           67.1
     0.691              -51.28          5.063          12.31          53.41         -13.51          -9.54         -60.54          -7.71          99.51          15.28          67.22
    0.7157              -51.26           5.11          12.32          53.38         -13.49         -9.505         -60.59         -7.695          99.14          15.36          67.36
    0.7403              -51.24          5.164          12.34          53.34         -13.48         -9.466         -60.65         -7.678          98.72          15.45          67.53
     0.765              -51.21          5.225          12.35          53.29         -13.46         -9.421         -60.72         -7.659          98.24          15.56          67.71
    0.7897              -51.17          5.296          12.37          53.24         -13.43         -9.369          -60.8         -7.637          97.68          15.68          67.93
    0.8144              -51.13          5.379           12.4          53.18         -13.41         -9.309         -60.88         -7.611          97.03          15.81          68.18
     0.839              -51.09          5.476          12.42          53.11         -13.38         -9.238         -60.99         -7.581          96.28          15.98          68.47
    0.8637              -51.03           5.59          12.46          53.03         -13.35         -9.155         -61.11         -7.545          95.38          16.17          68.82
    0.8884              -50.97          5.726          12.49          52.93         -13.31         -9.056         -61.26         -7.502          94.32           16.4          69.23
    0.9131              -50.89          5.888          12.54          52.81         -13.26         -8.937         -61.43         -7.452          93.05          16.67          69.72
    0.9378              -50.79          6.085           12.6          52.66          -13.2         -8.794         -61.64          -7.39          91.51           17.0          70.31
    0.9624              -50.68          6.325          12.66          52.49         -13.12         -8.619          -61.9         -7.315          89.62           17.4          71.04
    0.9871              -50.53          6.622          12.75          52.27         -13.03         -8.402         -62.22         -7.223           87.3           17.9          71.93
     1.012              -50.36          6.992          12.85           52.0         -12.92         -8.132         -62.62         -7.107          84.41          18.52          73.05
     1.036              -50.13          7.457          12.98          51.66         -12.78         -7.793         -63.12         -6.961          80.76           19.3          74.46
